<svg width="65" height="45" viewBox="0 0 65 45" fill="none" xmlns="http://www.w3.org/2000/svg">
    <rect x="1.5" y="1.5" width="62" height="42" rx="1.5" stroke="#673AB7" stroke-opacity="0.9" stroke-width="3"/>
    <path d="M10.4279 19.728V17.248H9.06794V19.728H7.65994V20.928H9.06794V26.192C9.06794 26.576 9.10527 26.8853 9.17994 27.12C9.2546 27.3547 9.3666 27.536 9.51594 27.664C9.67594 27.792 9.8786 27.8827 10.1239 27.936C10.3799 27.9787 10.6839 28 11.0359 28H12.0759V26.8H11.4519C11.2386 26.8 11.0626 26.7947 10.9239 26.784C10.7959 26.7627 10.6946 26.7253 10.6199 26.672C10.5453 26.6187 10.4919 26.544 10.4599 26.448C10.4386 26.352 10.4279 26.224 10.4279 26.064V20.928H12.0759V19.728H10.4279ZM13.1068 16.576V28H14.4668V23.328C14.4668 22.9547 14.5148 22.6133 14.6108 22.304C14.7175 21.984 14.8721 21.7067 15.0748 21.472C15.2775 21.2373 15.5281 21.056 15.8268 20.928C16.1361 20.8 16.4988 20.736 16.9148 20.736C17.4375 20.736 17.8481 20.8853 18.1468 21.184C18.4455 21.4827 18.5948 21.888 18.5948 22.4V28H19.9548V22.56C19.9548 22.112 19.9068 21.7067 19.8108 21.344C19.7255 20.9707 19.5708 20.6507 19.3468 20.384C19.1228 20.1173 18.8295 19.9093 18.4668 19.76C18.1041 19.6107 17.6508 19.536 17.1068 19.536C16.8615 19.536 16.6055 19.5627 16.3388 19.616C16.0828 19.6693 15.8321 19.7547 15.5868 19.872C15.3521 19.9787 15.1388 20.1227 14.9468 20.304C14.7548 20.4747 14.6055 20.688 14.4988 20.944H14.4668V16.576H13.1068ZM22.9574 18.24V16.576H21.5974V18.24H22.9574ZM21.5974 19.728V28H22.9574V19.728H21.5974ZM24.5843 19.728V28H25.9443V23.328C25.9443 22.9547 25.9923 22.6133 26.0883 22.304C26.195 21.984 26.3496 21.7067 26.5523 21.472C26.755 21.2373 27.0056 21.056 27.3043 20.928C27.6136 20.8 27.9763 20.736 28.3923 20.736C28.915 20.736 29.3256 20.8853 29.6243 21.184C29.923 21.4827 30.0723 21.888 30.0723 22.4V28H31.4323V22.56C31.4323 22.112 31.3843 21.7067 31.2883 21.344C31.203 20.9707 31.0483 20.6507 30.8243 20.384C30.6003 20.1173 30.307 19.9093 29.9443 19.76C29.5816 19.6107 29.1283 19.536 28.5843 19.536C27.3576 19.536 26.4616 20.0373 25.8963 21.04H25.8643V19.728H24.5843ZM33.0749 16.576V28H34.4349V24.864L35.7149 23.68L38.5469 28H40.2749L36.7549 22.736L40.0349 19.728H38.2109L34.4349 23.344V16.576H33.0749ZM40.5878 22.912V24.192H45.2118V22.912H40.5878ZM47.9906 18.24V16.576H46.6306V18.24H47.9906ZM46.6306 19.728V28H47.9906V19.728H46.6306ZM49.6174 19.728V28H50.9774V23.328C50.9774 22.9547 51.0254 22.6133 51.1214 22.304C51.2281 21.984 51.3828 21.7067 51.5854 21.472C51.7881 21.2373 52.0388 21.056 52.3374 20.928C52.6468 20.8 53.0094 20.736 53.4254 20.736C53.9481 20.736 54.3588 20.8853 54.6574 21.184C54.9561 21.4827 55.1054 21.888 55.1054 22.4V28H56.4654V22.56C56.4654 22.112 56.4174 21.7067 56.3214 21.344C56.2361 20.9707 56.0814 20.6507 55.8574 20.384C55.6334 20.1173 55.3401 19.9093 54.9774 19.76C54.6148 19.6107 54.1614 19.536 53.6174 19.536C52.3908 19.536 51.4948 20.0373 50.9294 21.04H50.8974V19.728H49.6174Z" fill="#673AB7" fill-opacity="0.9"/>
</svg>